<?xml version="1.0" encoding="UTF-8"?>
<svg width="128px" height="128px" viewBox="0 0 128 128" version="1.1" xmlns="http://www.w3.org/2000/svg" xmlns:xlink="http://www.w3.org/1999/xlink">
    <title>bags_tick</title>
    <defs>
        <path d="M0.407678638,3.68778519 L0.403886278,54.799243 C0.403886278,56.5627643 1.3643013,58.1924886 2.92201294,59.0733201 L2.92201294,59.0733201 L15.4775669,66.1785086 C21.4173499,69.5401631 20.3659182,67.3195013 20.3668663,64.8591196 L20.3668663,64.8591196 L20.4114265,13.7253623 C20.4142707,10.630373 18.7304632,7.77045795 15.9971201,6.22342787 L15.9971201,6.22342787 L5.96348519,0.545409401 C5.36618858,0.208128971 4.73286456,0.053890537 4.11660615,0.053890537 L4.11660615,0.053890537 C2.18250285,0.053890537 0.407678638,1.5693296 0.407678638,3.68778519" id="path-1"></path>
        <path d="M0.313598953,2.89155885 L0.310681752,42.9675882 C0.310681752,44.3503493 1.04946254,45.6282012 2.24770225,46.3188532 L2.24770225,46.3188532 L11.9058207,51.8899669 C16.4748844,54.5258097 15.6660909,52.784609 15.6668203,50.855446 L15.6668203,50.855446 L15.7010973,10.7619318 C15.7032853,8.33517883 14.4080486,6.09274544 12.3054771,4.87973322 L12.3054771,4.87973322 L4.5872963,0.427650553 C4.12783737,0.163192034 3.64066505,0.0422550801 3.16662012,0.0422550801 L3.16662012,0.0422550801 C1.67884834,0.0422550801 0.313598953,1.23049708 0.313598953,2.89155885" id="path-3"></path>
    </defs>
    <g id="Page-1" stroke="none" stroke-width="1" fill="none" fill-rule="evenodd">
        <g id="bags_tick" transform="translate(8.000000, 9.000000)">
            <polygon id="Polygon" fill-opacity="0.05" fill="#000D29" fill-rule="nonzero" points="57.2871086 4.49147791 100.553327 24.5731389 111.2392 69.6962214 81.2980483 105.882124 33.276169 105.882124 3.33501708 69.6962214 14.0208905 24.5731389"></polygon>
            <g id="tick" transform="translate(83.134021, 2.309278)" fill-rule="nonzero">
                <g id="Group-24" transform="translate(13.017526, 15.500000) scale(-1, 1) translate(-13.017526, -15.500000) translate(0.517526, 0.000000)">
                    <path d="M18.4720154,0.724663742 L21.7417957,2.51283635 C19.6670997,1.3782822 16.7942117,1.53830302 13.6230165,3.2614194 L10.3532361,1.4730285 C13.5244313,-0.24986959 16.3975513,-0.410108717 18.4720154,0.724663742" id="Fill-16" fill="#1D8C79"></path>
                    <path d="M6.53217209,29.3527747 L3.29505267,27.4955027 C1.26726007,26.331845 0.0101664535,23.8578254 -0.000122756347,20.3412301 C-0.0203767419,13.2629173 5.0201691,4.64273528 11.2574111,1.0871398 L14.4945305,2.94463857 C8.25728849,6.50023404 3.21651301,15.120416 3.2369517,22.198729 C3.24705621,25.715324 4.50460914,28.1893439 6.53217209,29.3527747" id="Fill-18" fill="#1D8C79"></path>
                    <path d="M19.0101693,1.6307097 C22.4663971,1.73748804 24.8342064,4.14276448 24.8480015,9.17613118 C24.8673779,16.4175357 20.0159528,25.2366179 14.0114579,28.8751823 C8.00851014,32.512819 3.12570003,29.5922243 3.10574115,22.3508199 C3.0865792,15.1091835 7.93778322,6.29010119 13.940731,2.65246462 C15.7717459,1.54291821 17.4938317,1.58386325 19.0101693,1.6307097 Z" id="Fill-20" fill="#26BAA2"></path>
                </g>
                <path d="M15.8816702,11.4404516 C16.9099713,10.9267451 17.6597933,10.9691278 18.1311363,11.5675996 C18.8381507,12.4653074 18.8381507,13.2529938 17.3396463,14.2532933 C14.6561452,16.0446158 11.7787735,18.093864 7.94663323,20.671104 C7.59029982,20.9107499 7.25337023,20.7671914 6.93584446,20.2404286 L3.41382514,14.9626647 C3.28735898,14.4047677 3.34438655,14.0213301 3.58490787,13.8123522 C5.01215627,12.5722809 5.56088459,13.1870806 5.89673316,13.6983533 C6.41489177,14.4871621 7.09819179,15.5074983 7.94663323,16.7593616 L15.8816702,11.4404516 Z" id="Fill-28" fill="#FFFFFF"></path>
            </g>
            <g id="bags" transform="translate(0.595190, 0.000000)">
                <g id="Group-115" transform="translate(58.228598, 55.500000) scale(-1, 1) translate(-58.228598, -55.500000) translate(29.728598, 0.000000)">
                    <g id="Group-14" fill-rule="nonzero">
                        <path d="M22.3724606,108.071816 C22.3724606,109.167434 21.463442,110.055023 20.3413723,110.055023 C19.2202496,110.055023 18.3102841,109.167434 18.3102841,108.071816 C18.3102841,106.976198 19.2202496,106.087685 20.3413723,106.087685 C21.463442,106.087685 22.3724606,106.976198 22.3724606,108.071816" id="Fill-4" fill="#2F353B"></path>
                        <path d="M4.47341266,98.168727 C4.47341266,99.2643446 3.56439415,100.152858 2.44232442,100.152858 C1.32120159,100.152858 0.411236187,99.2643446 0.411236187,98.168727 C0.411236187,97.0731094 1.32120159,96.1855203 2.44232442,96.1855203 C3.56439415,96.1855203 4.47341266,97.0731094 4.47341266,98.168727" id="Fill-6" fill="#2F353B"></path>
                        <path d="M56.4241046,89.2905259 C56.4241046,90.3861435 55.5141392,91.2737325 54.3920695,91.2737325 C53.2709467,91.2737325 52.3619281,90.3861435 52.3619281,89.2905259 C52.3619281,88.1949082 53.2709467,87.3063947 54.3920695,87.3063947 C55.5141392,87.3063947 56.4241046,88.1949082 56.4241046,89.2905259" id="Fill-8" fill="#2F353B"></path>
                        <path d="M15.1139477,37.1574329 L12.2230795,37.1574329 L12.2230795,8.82485334 C12.2230795,7.87624262 12.746712,6.99235195 13.5913418,6.51897115 L24.3651049,0.479667873 C25.2173098,0.00166422931 26.2342742,0.00351337301 27.0855321,0.484290732 C27.9367901,0.965068091 28.4443255,1.82584448 28.4443255,2.78555005 L28.4329628,28.7271869 L25.5420945,28.7262623 L25.5534572,3.06754447 L15.1139477,8.92008424 L15.1139477,37.1574329 Z" id="Fill-10" fill="#D3DEE3"></path>
                        <path d="M2.86028356,99.4310449 L16.7872046,107.283434 C18.880788,108.464112 21.5264105,108.58708 23.6237814,107.413798 L54.4253055,90.024451 C55.9327612,89.1812415 56.8645051,87.6140922 56.8654521,85.9165783 L56.8938602,31.9123369 C56.8948058,29.9411497 55.8181869,28.1197431 54.0702201,27.1341496 L42.6648785,20.7037524 C41.1896172,19.8716378 39.3715802,19.8716378 37.895372,20.7037524 L2.79116028,40.4951373 C1.3140052,41.3281765 0.404986684,42.8675886 0.406874576,44.5336671 L0.476003755,95.4054592 C0.477897544,97.0659901 1.38691606,98.6007794 2.86028356,99.4310449" id="Fill-12" fill="#0A8EFF"></path>
                    </g>
                    <g id="Fill-15-Clipped" transform="translate(0.000000, 40.629073)">
                        <mask id="mask-2" fill="white">
                            <use xlink:href="#path-1"></use>
                        </mask>
                        <g id="path-1"></g>
                        <path d="M0.407678638,3.68778519 L0.403886278,54.799243 C0.403886278,56.5627643 1.3643013,58.1924886 2.92201294,59.0733201 L2.92201294,59.0733201 L15.4775669,66.1785086 C21.4173499,69.5401631 20.3659182,67.3195013 20.3668663,64.8591196 L20.3668663,64.8591196 L20.4114265,13.7253623 C20.4142707,10.630373 18.7304632,7.77045795 15.9971201,6.22342787 L15.9971201,6.22342787 L5.96348519,0.545409401 C5.36618858,0.208128971 4.73286456,0.053890537 4.11660615,0.053890537 L4.11660615,0.053890537 C2.18250285,0.053890537 0.407678638,1.5693296 0.407678638,3.68778519" id="Fill-15" fill="#005DAD" fill-rule="nonzero" mask="url(#mask-2)"></path>
                    </g>
                    <path d="M10.9972302,104.291823 L9.79278066,103.611405 L9.79278066,47.3981436 C9.79278066,44.9944334 11.1127513,42.7548021 13.238529,41.5515565 L46.324909,22.8261625 L47.5094737,23.4963834 L13.8407537,42.5721832 C12.0861587,43.5649998 10.9972302,45.4143642 10.9972302,47.3981436 L10.9972302,104.291823 Z" id="Fill-18" fill="#003F75" fill-rule="nonzero"></path>
                    <path d="M15.1139477,11.0925711 C15.1139477,11.2473801 14.467219,11.8814478 13.6689871,11.8814478 C12.8707553,11.8814478 12.2230795,11.2473801 12.2230795,11.0925711 C12.2230795,10.9377622 12.8707553,10.8126172 13.6689871,10.8126172 C14.467219,10.8126172 15.1139477,10.9377622 15.1139477,11.0925711" id="Fill-20" fill="#3E454D" fill-rule="nonzero"></path>
                    <path d="M28.432868,4.81900794 C28.432868,4.97381689 27.7861392,5.60788468 26.9879074,5.60788468 C26.1896755,5.60788468 25.5419999,4.97381689 25.5419999,4.81900794 C25.5419999,4.66419899 26.1896755,4.53905403 26.9879074,4.53905403 C27.7861392,4.53905403 28.432868,4.66419899 28.432868,4.81900794" id="Fill-22" fill="#3E454D" fill-rule="nonzero"></path>
                    <path d="M27.0856269,0.485933243 C26.234369,0.00296639905 25.2174045,0.00203939934 24.3651996,0.481298244 L13.5914365,6.53646029 C12.744913,7.01201113 12.2231743,7.89358785 12.2231743,8.84839754 L12.2231743,11.0926638 L15.1140424,11.0926638 L15.1140424,10.1146791 C15.1140424,9.38976536 15.5098443,8.72047158 16.1518386,8.3598687 L25.2202451,3.26322434 C25.3679606,3.18072137 25.5516582,3.28547234 25.5507113,3.45233228 L25.5421892,4.81872984 L28.4330575,4.81872984 L28.4444202,2.7932355 C28.4444202,1.83100981 27.935938,0.967973087 27.0856269,0.485933243" id="Fill-24" fill="#3E454D" fill-rule="nonzero"></path>
                    <path d="M34.4295495,27.062922 L34.0176505,26.830245 L33.2449848,26.3927012 C33.0224646,26.2675562 32.750706,26.2619942 32.5234514,26.3797231 L31.6182204,26.8478581 C29.9147575,26.741253 28.003925,27.1834319 26.1338088,28.1465846 C23.8877754,29.3034802 21.850059,31.1389396 20.264958,33.4063809 L20.2630641,33.4054539 L18.0937294,34.5261966 C17.595663,34.7839025 17.5824065,35.4782252 18.070057,35.7544711 L19.4307441,36.5229539 C19.6333795,36.6379019 19.8805189,36.6480988 20.0926232,36.5507639 L21.8244928,35.7572521 C21.8841472,35.7350042 21.9409608,35.7090482 21.9968276,35.6784572 L22.0489068,35.6552822 L22.0479599,35.6506471 C22.2231354,35.5468233 22.3803198,35.4087002 22.4996285,35.2307163 C25.2456219,31.1185457 29.0464555,29.4898071 31.50554,29.6826231 C31.7271133,29.7002361 31.9420582,29.6668641 32.140906,29.5945581 L32.1427999,29.5964121 L32.1570032,29.5899231 C32.2886216,29.5398651 32.410771,29.4712672 32.5215575,29.3869102 L34.4248151,28.3292036 C34.9257222,28.0501767 34.9285628,27.3447299 34.4295495,27.062922" id="Fill-26" fill="#3E454D" fill-rule="nonzero"></path>
                    <path d="M6.8753047,64.0822842 C6.88003917,63.7068493 6.67835068,63.3582975 6.34599079,63.1710435 L5.45591016,62.6686097 C5.17847014,62.5110197 4.83190683,62.7112516 4.83853509,63.0245775 L4.88114533,65.2632818 C4.74100498,65.3374417 4.61128047,65.4366308 4.50333452,65.5654837 C2.88793287,67.4639792 2.34441556,69.9335063 2.34441556,72.4308435 C2.34441556,74.9281807 2.88793287,77.2873949 4.50333452,79.1877443 C4.59328947,79.2934223 4.69839473,79.3814873 4.81202205,79.4500852 L4.84042887,80.9388467 C4.84611024,81.2558806 5.02128569,81.5478855 5.30346019,81.7073295 L6.15850572,82.1902964 C6.4435209,82.3515943 6.80050005,82.1532164 6.80523452,81.8306205 L6.84026961,78.3784736 C6.84121649,78.3738385 6.84026961,78.3692036 6.84121649,78.3645686 L6.84216339,78.2672336 L6.83458824,78.2663066 C6.81943793,77.9993307 6.7256954,77.7360627 6.54010411,77.5163639 C5.32239807,76.0813683 5.09798412,74.1745299 5.09798412,72.2899395 C5.09798412,70.4044222 5.32239807,68.6700057 6.54010411,67.2350102 C6.75031465,66.9875012 6.84973855,66.6815914 6.84121649,66.3784624 C6.84121649,66.3710464 6.84405718,66.3654844 6.84405718,66.3580684 L6.8753047,64.0822842 Z" id="Fill-28" fill="#2F353B" fill-rule="nonzero"></path>
                    <path d="M50.2545202,92.0533877 L50.2346355,90.1817753 C50.2270603,89.4188547 50.6389593,88.7115539 51.3140949,88.32963 L56.9234967,85.159291 L56.9234967,87.0290494 C56.9234967,88.214682 56.2729803,89.3094687 55.2209808,89.8971865 L50.802772,92.3611517 C50.5594202,92.4974206 50.257361,92.3268527 50.2545202,92.0533877" id="Fill-30" fill="#3E454D" fill-rule="nonzero"></path>
                    <path d="M26.055974,102.587163 L21.2684766,105.293076 C20.6965524,105.617526 19.9901692,105.611963 19.4220327,105.280098 L18.1872826,104.559819 C17.6740658,104.260398 17.0226025,104.623782 17.0263574,105.208719 L17.0386998,107.241629 C17.0396466,107.514167 17.189256,107.768165 17.430714,107.906288 L18.4940763,108.516254 C19.6360307,109.170715 21.048797,109.173496 22.195486,108.525524 L26.59381,106.040237 C26.8381087,105.902114 26.987718,105.648117 26.987718,105.372798 L26.987718,103.113699 C26.987718,102.645564 26.4697669,102.352633 26.055974,102.587163" id="Fill-32" fill="#3E454D" fill-rule="nonzero"></path>
                    <polygon id="Fill-34" fill="#5CB4FF" fill-rule="nonzero" points="19.6200283 50.9617158 18.6560899 49.3283423 55.5461442 28.4754841 56.5100826 30.1088576"></polygon>
                    <path d="M12.9237813,7.34063253 C12.9237813,7.34063253 18.4119806,0.123012861 26.5912534,0.264843815 L12.9237813,7.34063253 Z" id="Fill-36" fill="#3E454D" fill-rule="nonzero"></path>
                    <path d="M25.1927852,50.5770109 C25.6018435,50.34248 25.9360973,61.7176934 25.9360973,75.8562928 C25.9360973,89.9948923 25.6018435,101.75481 25.1927852,101.989341 C24.7837268,102.223872 24.4494732,90.8486589 24.4494732,76.7100595 C24.4494732,62.5714601 24.7837268,50.8115419 25.1927852,50.5770109" id="Fill-38" fill="#5CB4FF" fill-rule="nonzero"></path>
                    <path d="M29.8754615,47.8878775 C30.2845198,47.6533466 30.6187735,59.0285599 30.6187735,73.1671593 C30.6187735,87.3048318 30.2845198,99.0647499 29.8754615,99.3002079 C29.4664032,99.5347389 29.1321495,88.1585986 29.1321495,74.019999 C29.1321495,59.8823267 29.4664032,48.1224084 29.8754615,47.8878775" id="Fill-40" fill="#5CB4FF" fill-rule="nonzero"></path>
                    <path d="M34.5586112,45.1982805 C34.9676695,44.9637497 35.3019232,56.338963 35.3019232,70.4775625 C35.3019232,84.6152348 34.9676695,96.37608 34.5586112,96.610611 C34.1495529,96.8451419 33.8152992,85.4699285 33.8152992,71.3313291 C33.8152992,57.1927297 34.1495529,45.4328115 34.5586112,45.1982805" id="Fill-42" fill="#5CB4FF" fill-rule="nonzero"></path>
                    <path d="M39.2412875,42.5086837 C39.6503459,42.2741528 39.9845995,53.6493661 39.9845995,67.7879655 C39.9845995,81.925638 39.6503459,93.6864832 39.2412875,93.921014 C38.8322292,94.156472 38.4979755,82.7803317 38.4979755,68.6417322 C38.4979755,54.5031328 38.8322292,42.7432146 39.2412875,42.5086837" id="Fill-44" fill="#5CB4FF" fill-rule="nonzero"></path>
                    <path d="M43.9239638,39.8196429 C44.3330221,39.585112 44.6672758,50.9603254 44.6672758,65.0989248 C44.6672758,79.2375242 44.3330221,90.9974424 43.9239638,91.2310463 C43.5149055,91.4665042 43.1806518,80.0912909 43.1806518,65.9526914 C43.1806518,51.814092 43.5149055,40.0541739 43.9239638,39.8196429" id="Fill-46" fill="#5CB4FF" fill-rule="nonzero"></path>
                    <path d="M48.6066401,37.130046 C49.0166453,36.8955151 49.3499521,48.2707284 49.3499521,62.4093278 C49.3499521,76.5479272 49.0166453,88.3078455 48.6066401,88.5423764 C48.1975818,88.7769073 47.864275,77.401694 47.864275,63.2630946 C47.864275,49.1244952 48.1975818,37.3645769 48.6066401,37.130046" id="Fill-48" fill="#5CB4FF" fill-rule="nonzero"></path>
                    <path d="M53.2902633,34.4409126 C53.6993216,34.2063816 54.0335752,45.581595 54.0335752,59.7201944 C54.0335752,73.8578668 53.6993216,85.618712 53.2902633,85.853243 C52.8812049,86.0877739 52.5469513,74.7116336 52.5469513,60.5739611 C52.5469513,46.4353616 52.8812049,34.6754435 53.2902633,34.4409126" id="Fill-50" fill="#5CB4FF" fill-rule="nonzero"></path>
                    <path d="M0.411709634,94.5465534 L0.411709634,95.759069 C0.411709634,97.3340415 1.26959585,98.7885041 2.66247734,99.5773809 L3.71826447,100.174369 L3.71826447,98.2601142 C3.71826447,97.1236126 3.1008894,96.0742489 2.09718146,95.5041442 L0.411709634,94.5465534 Z" id="Fill-52" fill="#3E454D" fill-rule="nonzero"></path>
                </g>
                <g id="Group-125" transform="translate(0.000000, 21.877193)">
                    <g id="Group-115" transform="translate(22.512645, 43.500000) scale(-1, 1) translate(-22.512645, -43.500000) translate(0.012645, 0.000000)">
                        <g id="Group-14" fill-rule="nonzero">
                            <path d="M17.4008026,84.4786731 C17.4008026,85.3351066 16.6937883,86.0289261 15.8210673,86.0289261 C14.9490829,86.0289261 14.2413321,85.3351066 14.2413321,84.4786731 C14.2413321,83.6222396 14.9490829,82.9276973 15.8210673,82.9276973 C16.6937883,82.9276973 17.4008026,83.6222396 17.4008026,84.4786731" id="Fill-4" fill="#2F353B"></path>
                            <path d="M3.47932096,76.737526 C3.47932096,77.5939596 2.77230656,78.2885018 1.89958566,78.2885018 C1.02760124,78.2885018 0.319850368,77.5939596 0.319850368,76.737526 C0.319850368,75.8810925 1.02760124,75.187273 1.89958566,75.187273 C2.77230656,75.187273 3.47932096,75.8810925 3.47932096,76.737526" id="Fill-6" fill="#2F353B"></path>
                            <path d="M43.8854147,69.7975237 C43.8854147,70.6539573 43.1776638,71.3477768 42.304943,71.3477768 C41.4329585,71.3477768 40.7259441,70.6539573 40.7259441,69.7975237 C40.7259441,68.9410902 41.4329585,68.246548 42.304943,68.246548 C43.1776638,68.246548 43.8854147,68.9410902 43.8854147,69.7975237" id="Fill-8" fill="#2F353B"></path>
                            <path d="M11.7552927,29.045599 L9.50683963,29.045599 L9.50683963,6.89830085 C9.50683963,6.15678121 9.91410939,5.46585258 10.5710436,5.09581549 L18.9506372,0.374951648 C19.6134631,0.00130091165 20.4044355,0.00274636904 21.066525,0.378565291 C21.7286145,0.754384212 22.1233643,1.42724462 22.1233643,2.17743701 L22.1145265,22.4557588 L19.8660736,22.455036 L19.8749112,2.39786927 L11.7552927,6.9727419 L11.7552927,29.045599 Z" id="Fill-10" fill="#D3DEE3"></path>
                            <path d="M2.22466498,77.7242675 L13.0567148,83.8624023 C14.6850572,84.7853269 16.7427637,84.8814498 18.3740522,83.9643071 L42.3307932,70.3712257 C43.5032587,69.7120972 44.2279485,68.487072 44.2286849,67.1601422 L44.2507801,24.9455591 C44.2515156,23.4047015 43.4141454,21.980926 42.0546156,21.2104972 L33.1837944,16.1839192 C32.0363689,15.5334632 30.6223402,15.5334632 29.4741782,16.1839192 L2.17090243,31.6546496 C1.02200404,32.3058281 0.314989643,33.5091713 0.316458003,34.8115285 L0.370225144,74.5775067 C0.37169809,75.8755275 1.07871249,77.0752572 2.22466498,77.7242675" id="Fill-12" fill="#0A8EFF"></path>
                        </g>
                        <g id="Fill-15-Clipped" transform="translate(0.000000, 31.253132)">
                            <mask id="mask-4" fill="white">
                                <use xlink:href="#path-3"></use>
                            </mask>
                            <g id="path-3"></g>
                            <path d="M0.313598953,2.89155885 L0.310681752,42.9675882 C0.310681752,44.3503493 1.04946254,45.6282012 2.24770225,46.3188532 L2.24770225,46.3188532 L11.9058207,51.8899669 C16.4748844,54.5258097 15.6660909,52.784609 15.6668203,50.855446 L15.6668203,50.855446 L15.7010973,10.7619318 C15.7032853,8.33517883 14.4080486,6.09274544 12.3054771,4.87973322 L12.3054771,4.87973322 L4.5872963,0.427650553 C4.12783737,0.163192034 3.64066505,0.0422550801 3.16662012,0.0422550801 L3.16662012,0.0422550801 C1.67884834,0.0422550801 0.313598953,1.23049708 0.313598953,2.89155885" id="Fill-15" fill="#005DAD" fill-rule="nonzero" mask="url(#mask-4)"></path>
                        </g>
                        <g id="Group-114" fill-rule="nonzero">
                            <path d="M8.55340126,81.9435754 L7.61660718,81.4089614 L7.61660718,37.2413985 C7.61660718,35.3527691 8.643251,33.5930588 10.2966336,32.6476515 L36.0304848,17.934842 L36.9518129,18.461444 L10.7650307,33.4495725 C9.40034559,34.2296428 8.55340126,35.6827147 8.55340126,37.2413985 L8.55340126,81.9435754 Z" id="Fill-18" fill="#003F75"></path>
                            <path d="M11.7552927,8.71559159 C11.7552927,8.83722719 11.2522814,9.33542332 10.6314344,9.33542332 C10.0105874,9.33542332 9.50683963,8.83722719 9.50683963,8.71559159 C9.50683963,8.59395599 10.0105874,8.49562781 10.6314344,8.49562781 C11.2522814,8.49562781 11.7552927,8.59395599 11.7552927,8.71559159" id="Fill-20" fill="#3E454D"></path>
                            <path d="M22.1144529,3.78636338 C22.1144529,3.90799899 21.6114416,4.40619512 20.9905947,4.40619512 C20.3697476,4.40619512 19.8659999,3.90799899 19.8659999,3.78636338 C19.8659999,3.66472778 20.3697476,3.56639959 20.9905947,3.56639959 C21.6114416,3.56639959 22.1144529,3.66472778 22.1144529,3.78636338" id="Fill-22" fill="#3E454D"></path>
                            <path d="M21.0665987,0.381804691 C20.4045092,0.0023307421 19.6135368,0.0016023852 18.9507108,0.378162907 L10.5711172,5.13579023 C9.91271008,5.50943732 9.50691327,6.20210474 9.50691327,6.95231235 L9.50691327,8.71566443 L11.7553663,8.71566443 L11.7553663,7.94724789 C11.7553663,7.37767279 12.0632122,6.85179911 12.5625411,6.56846826 L19.6157462,2.56396199 C19.7306361,2.49913822 19.8735119,2.58144255 19.8727754,2.7125468 L19.8661471,3.78614487 L22.1146002,3.78614487 L22.1234379,2.19468503 C22.1234379,1.43865056 21.7279517,0.760550283 21.0665987,0.381804691" id="Fill-24" fill="#3E454D"></path>
                            <path d="M26.7785385,21.2637244 L26.4581727,21.0809068 L25.8572103,20.7371224 C25.6841392,20.6387941 25.4727713,20.634424 25.2960177,20.7269254 L24.5919492,21.0947455 C23.2670337,21.0109845 21.7808305,21.3584107 20.3262956,22.1151736 C18.5793809,23.0241631 16.9944903,24.4663097 15.761634,26.2478707 L15.7601611,26.2471424 L14.0729007,27.1277259 C13.6855157,27.3302091 13.6752051,27.8757484 14.0544888,28.0927988 L15.1128009,28.6966066 C15.2704063,28.7869229 15.4626258,28.7949348 15.6275958,28.7184574 L16.9746056,28.0949839 C17.0210034,28.0775033 17.0651918,28.0571093 17.1086437,28.0330735 L17.1491497,28.0148646 L17.1484133,28.0112227 C17.2846608,27.9296468 17.4069154,27.8211217 17.499711,27.6812771 C19.6354837,24.4502859 22.5916877,23.1705628 24.5043089,23.322061 C24.6766436,23.3358998 24.8438231,23.3096789 24.9984824,23.2528671 L24.9999554,23.2543239 L25.0110025,23.2492253 C25.1133723,23.2098941 25.2083774,23.1559956 25.2945447,23.0897152 L26.7748561,22.2586599 C27.1644506,22.0394245 27.16666,21.4851449 26.7785385,21.2637244" id="Fill-26" fill="#3E454D"></path>
                            <path d="M5.3474592,50.3503661 C5.35114157,50.0553817 5.19427275,49.7815194 4.93577062,49.6343913 L4.24348569,49.2396219 C4.02769899,49.1158012 3.75814976,49.2731263 3.76330507,49.519311 L3.79644637,51.2782928 C3.68744832,51.3365614 3.58655148,51.4144955 3.50259352,51.5157372 C2.24617001,53.0074122 1.82343432,54.9477549 1.82343432,56.9099485 C1.82343432,58.872142 2.24617001,60.7258103 3.50259352,62.2189419 C3.57255847,62.3019747 3.65430702,62.3711686 3.74268382,62.4250669 L3.76477802,63.5948082 C3.76919686,63.8439063 3.90544442,64.0733386 4.12491348,64.198616 L4.78994889,64.5780899 C5.01162736,64.704824 5.28927781,64.5489557 5.29296017,64.2954875 L5.32020969,61.5830864 C5.32094617,61.5794447 5.32020969,61.5758028 5.32094617,61.5721611 L5.32168263,61.4956835 L5.31579086,61.4949552 C5.30400728,61.2851884 5.23109642,61.0783351 5.08674765,60.9057144 C4.13964295,59.7782179 3.96509876,58.2799878 3.96509876,56.7992382 C3.96509876,55.3177603 4.13964295,53.9550045 5.08674765,52.827508 C5.25024473,52.6330367 5.32757442,52.3926789 5.32094617,52.1545062 C5.32094617,52.1486793 5.32315558,52.1443092 5.32315558,52.1384824 L5.3474592,50.3503661 Z" id="Fill-28" fill="#2F353B"></path>
                            <path d="M39.0868491,72.3276618 L39.0713831,70.8571092 C39.0654913,70.2576715 39.3858572,69.7019352 39.9109627,69.4018521 L44.2738307,66.9108715 L44.2738307,68.3799673 C44.2738307,69.3115359 43.7678736,70.1717253 42.9496517,70.6335036 L39.5132671,72.5694763 C39.3239935,72.6765448 39.0890585,72.5425271 39.0868491,72.3276618" id="Fill-30" fill="#3E454D"></path>
                            <path d="M20.2657576,80.6041998 L16.5421484,82.7302737 C16.0973185,82.9851986 15.5479094,82.9808284 15.1060254,82.7200767 L14.1456642,82.1541434 C13.7464956,81.9188841 13.239802,82.2044 13.2427224,82.6639932 L13.2523221,84.2612798 C13.2530585,84.4754168 13.3694213,84.6749866 13.557222,84.7835118 L14.3842816,85.2627707 C15.2724684,85.7769906 16.3712866,85.7791757 17.2631558,85.2700543 L20.6840744,83.3173293 C20.8740845,83.2088042 20.9904473,83.0092344 20.9904473,82.7929124 L20.9904473,81.0179066 C20.9904473,80.6500864 20.5875964,80.4199255 20.2657576,80.6041998" id="Fill-32" fill="#3E454D"></path>
                            <polygon id="Fill-34" fill="#5CB4FF" points="15.2600219 40.0413482 14.5102921 38.7579833 43.2025566 22.3735947 43.9522864 23.6569595"></polygon>
                            <path d="M10.0518299,5.76763984 C10.0518299,5.76763984 14.3204293,0.0966529617 20.6820859,0.208091568 L10.0518299,5.76763984 Z" id="Fill-36" fill="#3E454D"></path>
                            <path d="M19.5943885,39.73908 C19.912545,39.5548057 20.1725201,48.4924734 20.1725201,59.6013729 C20.1725201,70.7102725 19.912545,79.9502082 19.5943885,80.1344825 C19.276232,80.3187568 19.0162569,71.3810892 19.0162569,60.2721897 C19.0162569,49.1632901 19.276232,39.9233543 19.5943885,39.73908" id="Fill-38" fill="#5CB4FF"></path>
                            <path d="M23.23647,37.6261895 C23.5546265,37.4419152 23.8146016,46.3795828 23.8146016,57.4884823 C23.8146016,68.5966535 23.5546265,77.8365893 23.23647,78.021592 C22.9183136,78.2058662 22.6583385,69.2674702 22.6583385,58.1585707 C22.6583385,47.0503995 22.9183136,37.8104638 23.23647,37.6261895" id="Fill-40" fill="#5CB4FF"></path>
                            <path d="M26.8789198,35.5129347 C27.1970763,35.3286604 27.4570514,44.2663281 27.4570514,55.3752276 C27.4570514,66.4833988 27.1970763,75.7240629 26.8789198,75.9083372 C26.5607634,76.0926114 26.3007883,67.1549439 26.3007883,56.0460444 C26.3007883,44.9371448 26.5607634,35.697209 26.8789198,35.5129347" id="Fill-42" fill="#5CB4FF"></path>
                            <path d="M30.5210014,33.39968 C30.8391579,33.2154057 31.0991329,42.1530733 31.0991329,53.2619729 C31.0991329,64.370144 30.8391579,73.6108082 30.5210014,73.7950825 C30.2028449,73.9800851 29.9428699,65.0416891 29.9428699,53.9327896 C29.9428699,42.82389 30.2028449,33.5839543 30.5210014,33.39968" id="Fill-44" fill="#5CB4FF"></path>
                            <path d="M34.163083,31.2868623 C34.4812394,31.102588 34.7412145,40.0402556 34.7412145,51.1491552 C34.7412145,62.2580547 34.4812394,71.4979904 34.163083,71.6815364 C33.8449264,71.866539 33.5849514,62.9288715 33.5849514,51.8199719 C33.5849514,40.7110724 33.8449264,31.4711366 34.163083,31.2868623" id="Fill-46" fill="#5CB4FF"></path>
                            <path d="M37.8051645,29.1736076 C38.1240575,28.9893333 38.3832961,37.9270008 38.3832961,49.0359004 C38.3832961,60.1448 38.1240575,69.3847357 37.8051645,69.56901 C37.487008,69.7532843 37.2277695,60.8156167 37.2277695,49.7067171 C37.2277695,38.5978176 37.487008,29.3578819 37.8051645,29.1736076" id="Fill-48" fill="#5CB4FF"></path>
                            <path d="M41.4479826,27.060717 C41.766139,26.8764427 42.0261141,35.8141103 42.0261141,46.9230099 C42.0261141,58.0311811 41.766139,67.2718452 41.4479826,67.4561195 C41.129826,67.6403938 40.869851,58.7019978 40.869851,47.5938266 C40.869851,36.4849271 41.129826,27.2449914 41.4479826,27.060717" id="Fill-50" fill="#5CB4FF"></path>
                            <path d="M0.320218604,74.2865777 L0.320218604,75.2392686 C0.320218604,76.476747 0.987463441,77.619539 2.07081571,78.2393706 L2.89198348,78.7084325 L2.89198348,77.2043755 C2.89198348,76.3114099 2.41180286,75.4869099 1.63114113,75.0389704 L0.320218604,74.2865777 Z" id="Fill-52" fill="#3E454D"></path>
                        </g>
                    </g>
                </g>
            </g>
        </g>
    </g>
</svg>